<?xml version="1.0" encoding="UTF-8" ?>
<!DOCTYPE svg PUBLIC "-//W3C//DTD SVG 1.1//EN" "http://www.w3.org/Graphics/SVG/1.1/DTD/svg11.dtd">
<svg width="1000pt" height="1000pt" viewBox="0 0 1000 1000" version="1.1" xmlns="http://www.w3.org/2000/svg">
<g id="#dd9425ff">
<path fill="#dd9425" opacity="1.00" d=" M 682.30 69.27 C 682.58 66.93 685.42 67.06 687.12 66.34 C 691.50 68.19 691.25 73.20 693.16 76.87 C 694.32 79.64 695.77 82.28 696.92 85.06 C 698.06 92.91 699.18 100.95 702.61 108.20 C 704.98 112.58 706.78 117.28 709.62 121.40 C 713.44 127.51 718.81 132.73 721.23 139.65 C 722.83 143.64 725.07 147.53 725.04 151.96 C 725.12 163.73 723.00 175.34 721.28 186.93 C 720.64 191.31 718.06 196.02 713.68 197.53 C 707.61 199.26 701.35 201.02 694.98 200.38 C 689.88 200.13 684.55 199.44 680.43 196.15 C 679.89 194.31 679.33 192.48 678.75 190.66 C 676.95 188.25 677.75 185.12 676.77 182.42 C 675.47 178.24 676.80 173.94 677.52 169.79 C 678.57 163.49 681.28 157.52 681.55 151.08 C 681.81 145.73 681.56 140.37 681.93 135.02 C 683.03 122.90 681.08 110.67 677.87 99.02 C 677.84 95.96 677.59 92.91 677.57 89.85 C 679.58 83.10 680.55 76.09 682.30 69.27 Z" />
<path fill="#dd9425" opacity="1.00" d=" M 319.62 84.89 C 319.77 81.74 323.84 77.94 326.64 80.64 C 330.83 84.71 333.30 90.11 335.51 95.43 C 339.14 104.43 344.94 112.40 351.52 119.47 C 359.09 126.60 365.81 134.56 372.22 142.74 C 381.07 154.99 386.08 169.91 386.64 184.98 C 387.84 190.36 387.88 196.64 384.03 201.02 C 378.67 205.88 371.72 208.13 365.35 211.26 C 359.91 213.81 353.75 212.42 348.10 211.48 C 344.59 211.04 341.25 209.72 338.41 207.64 C 332.47 196.63 326.98 185.36 322.75 173.58 C 321.81 168.25 319.67 162.92 320.79 157.44 C 321.59 152.26 319.96 147.11 320.59 141.93 C 320.34 128.30 317.99 114.83 316.41 101.32 C 316.18 101.19 315.72 100.95 315.49 100.82 C 317.80 95.82 317.54 90.03 319.62 84.89 Z" />
<path fill="#dd9425" opacity="1.00" d=" M 189.93 262.78 C 190.80 260.30 193.62 259.61 195.49 258.11 C 197.56 260.19 199.39 262.96 198.88 266.06 C 197.86 272.46 198.98 278.86 199.75 285.21 C 201.68 291.65 200.19 298.43 200.65 305.04 C 199.71 311.33 198.58 317.63 197.90 323.97 C 198.08 327.94 199.01 331.86 200.39 335.58 C 202.66 342.13 204.02 348.97 206.60 355.41 C 209.08 363.34 206.07 371.47 205.38 379.43 C 204.25 386.36 205.70 393.65 203.16 400.33 C 201.10 408.22 193.97 413.04 188.30 418.29 C 185.23 421.41 180.68 421.96 176.91 423.87 C 174.27 425.07 171.01 426.61 168.24 424.92 C 164.37 422.13 160.55 418.04 160.69 412.95 C 160.57 408.38 160.69 403.62 158.71 399.37 C 156.07 388.78 152.13 378.01 153.33 366.96 C 157.31 355.84 162.36 345.11 167.55 334.51 C 169.73 330.51 169.51 325.86 170.22 321.50 C 171.35 314.55 172.33 307.52 174.78 300.89 C 177.50 293.38 180.42 285.93 183.82 278.69 C 186.18 273.51 187.41 267.89 189.93 262.78 Z" />
</g>
<g id="#e5decbff">
<path fill="#e5decb" opacity="1.00" d=" M 430.69 194.73 C 436.71 191.94 443.50 190.14 448.01 184.93 C 449.77 198.11 450.51 211.49 453.92 224.39 C 454.81 227.78 455.05 231.42 456.81 234.53 C 457.04 236.33 457.22 238.15 457.70 239.91 C 461.65 250.75 464.66 261.91 468.90 272.64 C 471.64 280.00 474.92 287.14 478.11 294.30 C 488.02 300.91 494.58 313.05 493.40 325.05 C 497.45 328.62 500.56 333.08 503.48 337.59 C 506.47 342.44 507.57 348.11 509.55 353.38 C 514.62 352.83 521.43 354.44 521.78 360.61 C 524.30 360.97 526.71 361.81 528.91 363.10 C 530.86 366.20 532.64 369.51 533.26 373.17 C 532.80 376.92 531.59 380.51 530.72 384.18 C 529.85 387.79 530.37 391.87 527.99 394.98 C 523.48 401.63 516.12 406.61 507.90 406.82 C 505.96 407.29 504.00 407.66 502.08 408.21 C 500.31 408.97 498.55 409.76 496.80 410.58 C 495.20 411.43 493.60 412.28 492.02 413.15 C 490.01 414.09 488.00 415.02 485.97 415.91 C 480.52 417.21 475.06 418.58 470.13 421.34 C 467.10 422.52 464.17 423.91 461.24 425.31 C 459.82 425.46 458.40 425.63 457.00 425.81 C 453.96 426.81 450.90 427.76 447.86 428.77 C 446.22 429.45 444.58 430.12 442.95 430.82 C 440.44 431.93 437.78 432.58 435.13 433.23 C 433.37 433.39 431.63 433.57 429.89 433.80 C 428.24 434.22 426.58 434.53 424.91 434.82 C 423.30 435.30 421.68 435.74 420.09 436.25 C 418.68 436.44 417.28 436.62 415.89 436.82 C 413.92 437.32 411.90 437.59 409.91 437.94 C 404.92 438.91 399.59 437.53 394.85 439.76 C 392.94 440.64 390.81 440.45 388.78 440.44 C 387.47 439.75 385.92 439.36 384.98 438.16 C 381.90 433.98 379.34 429.34 378.06 424.28 C 377.37 413.63 377.28 402.74 374.26 392.43 C 373.74 389.08 372.60 385.88 371.78 382.60 C 370.46 380.70 369.90 378.45 369.33 376.25 C 367.74 372.20 364.94 368.73 363.66 364.55 C 361.24 360.73 359.76 356.39 357.25 352.61 C 355.87 348.14 352.24 344.84 350.84 340.39 C 349.68 336.48 346.41 333.60 345.55 329.57 C 342.89 326.62 341.73 322.70 339.48 319.47 C 336.50 315.39 334.34 310.73 330.79 307.10 C 328.31 303.61 326.61 299.55 323.74 296.34 C 318.21 289.31 313.34 281.80 308.63 274.21 C 306.45 270.41 304.16 266.41 300.45 263.92 C 302.67 263.07 301.80 260.47 302.10 258.64 C 303.74 257.72 305.32 256.70 306.89 255.66 C 307.98 255.22 309.07 254.77 310.18 254.35 C 310.69 254.11 311.72 253.63 312.23 253.39 C 313.14 252.75 314.05 252.11 314.96 251.46 C 315.23 251.46 315.76 251.45 316.03 251.45 C 316.94 250.76 317.85 250.08 318.76 249.40 L 319.63 249.56 L 319.72 248.88 C 320.87 248.39 322.00 247.87 323.15 247.37 C 324.45 246.39 325.76 245.41 327.04 244.41 C 327.36 244.45 328.01 244.54 328.33 244.58 L 328.34 243.39 L 329.58 243.56 L 329.68 242.33 C 330.09 242.40 330.91 242.54 331.33 242.61 L 331.38 241.41 L 332.56 241.58 L 332.75 240.86 C 334.86 239.95 336.93 238.95 339.09 238.15 C 341.47 237.38 343.94 236.75 346.13 235.49 C 346.45 235.50 347.08 235.53 347.39 235.54 L 347.31 234.41 L 348.00 234.26 C 359.46 230.17 370.39 224.82 381.90 220.85 C 385.80 219.62 388.80 216.66 392.38 214.77 C 398.52 212.07 405.06 210.24 410.83 206.72 C 412.58 206.12 414.27 205.38 415.98 204.67 C 418.40 202.49 420.74 200.16 423.96 199.23 C 425.53 196.83 427.88 195.28 430.69 194.73 Z" />
<path fill="#e5decb" opacity="1.00" d=" M 736.71 207.29 C 745.37 203.56 755.01 203.36 764.30 203.08 C 764.43 216.77 765.61 230.41 766.66 244.04 C 766.71 252.42 768.45 260.65 768.73 269.01 C 768.84 270.76 768.46 272.49 767.90 274.15 C 767.69 275.53 767.55 276.94 767.41 278.34 C 766.21 278.78 765.05 279.32 763.86 279.74 C 762.93 280.29 762.03 280.85 761.13 281.42 C 759.40 281.99 757.66 282.51 755.90 282.90 C 751.69 284.02 747.41 284.73 743.10 285.23 C 738.03 285.21 732.97 285.45 727.93 285.85 C 724.63 286.46 721.27 286.51 717.94 286.83 C 715.95 287.29 713.94 287.57 711.94 287.93 C 704.39 289.42 696.60 287.69 689.06 289.17 C 684.33 289.57 679.54 289.40 674.87 290.29 C 671.53 289.63 668.22 288.85 664.90 288.13 C 662.00 287.40 658.99 287.40 656.07 286.84 C 651.80 286.42 647.14 287.02 643.56 284.15 C 643.38 280.05 643.44 275.95 643.29 271.85 C 641.93 267.05 640.62 261.72 642.56 256.88 C 640.77 256.03 640.88 254.04 640.65 252.36 C 640.22 245.82 639.10 239.32 639.30 232.74 C 638.62 226.35 636.34 220.25 635.41 213.89 C 635.16 212.17 636.04 210.63 636.65 209.10 C 641.20 209.66 645.53 211.21 650.04 212.02 C 656.39 213.15 662.46 215.94 669.01 215.85 C 672.33 216.01 675.63 215.62 678.93 215.33 C 686.25 216.11 693.73 215.94 700.85 213.88 C 707.71 211.94 714.77 210.89 721.71 209.35 C 726.81 209.55 731.79 208.50 736.71 207.29 Z" />
<path fill="#e5decb" opacity="1.00" d=" M 235.12 386.25 C 237.73 385.96 239.89 387.62 242.11 388.73 C 244.61 393.95 243.89 399.82 244.75 405.39 C 247.00 410.33 250.35 414.60 253.16 419.21 C 253.18 419.86 253.21 421.16 253.23 421.80 C 255.27 422.98 256.73 424.82 257.57 427.01 C 259.15 431.05 263.50 433.53 263.96 438.08 C 264.31 439.74 264.60 441.41 264.97 443.08 C 265.38 444.99 265.37 446.95 265.17 448.89 C 263.61 454.33 257.12 454.75 254.24 459.10 C 251.67 462.59 248.37 465.45 245.84 468.97 C 243.84 471.70 241.06 473.68 238.09 475.25 C 228.09 480.64 217.85 485.88 209.11 493.23 C 205.30 494.96 201.65 497.02 198.18 499.36 C 196.42 500.17 194.68 501.02 192.91 501.80 C 192.37 502.02 191.31 502.44 190.78 502.66 C 186.31 506.53 181.33 509.67 175.91 512.05 C 171.89 512.95 167.79 513.47 163.68 513.57 C 159.77 507.25 158.98 499.48 154.51 493.43 C 154.12 493.47 153.33 493.54 152.94 493.58 C 152.95 492.26 152.96 490.95 152.97 489.64 C 152.47 489.53 151.47 489.29 150.97 489.17 C 149.94 487.12 149.03 485.00 148.68 482.73 C 147.50 482.27 146.33 481.77 145.16 481.32 C 145.23 478.69 143.85 476.52 142.57 474.36 C 142.25 474.09 141.63 473.57 141.31 473.30 C 141.07 469.75 136.96 468.57 136.57 464.99 C 134.63 463.05 133.86 460.36 132.75 457.93 C 132.99 457.69 133.45 457.19 133.68 456.94 C 140.42 456.69 146.55 453.49 153.10 452.19 C 158.72 449.14 164.62 446.64 170.47 444.07 C 171.45 443.45 172.17 442.51 172.97 441.71 C 184.84 437.31 194.59 429.04 204.39 421.30 C 207.52 418.77 209.35 415.10 211.87 412.04 C 215.24 407.42 219.22 403.26 223.61 399.60 C 228.17 395.83 231.62 390.97 235.12 386.25 Z" />
</g>
<g id="#deb615ff">
<path fill="#deb615" opacity="1.00" d=" M 750.59 297.30 C 759.76 295.32 769.01 293.33 777.76 289.93 C 780.10 289.62 782.47 289.75 784.83 289.68 C 786.96 293.86 787.44 298.64 787.29 303.27 C 786.59 307.62 781.37 308.13 778.82 311.04 C 778.26 314.96 779.11 319.07 777.56 322.84 C 773.21 335.68 769.72 349.32 761.17 360.16 C 758.05 364.03 755.52 368.54 751.42 371.48 C 746.15 374.62 740.65 377.46 734.79 379.33 C 735.97 381.46 738.08 383.28 738.12 385.87 C 738.64 389.37 736.47 392.38 735.32 395.52 C 734.43 396.13 733.55 396.75 732.68 397.38 C 734.15 404.36 740.16 409.28 742.32 415.98 C 743.04 419.74 742.71 426.59 737.20 425.59 C 734.85 424.13 732.11 423.60 729.59 422.57 C 727.93 423.78 726.22 424.91 724.37 425.80 C 721.65 424.70 718.84 423.74 715.90 423.54 C 715.24 426.25 714.43 428.94 713.06 431.39 C 707.36 445.56 702.00 459.87 696.99 474.30 C 692.09 484.71 687.52 495.43 680.48 504.64 C 666.55 526.90 646.48 545.00 623.53 557.61 C 621.39 558.65 619.23 559.75 617.52 561.43 C 609.72 564.71 602.71 569.62 594.77 572.53 C 592.01 573.15 589.61 574.66 587.44 576.41 C 585.98 580.44 584.41 584.51 584.21 588.86 C 584.14 591.53 583.07 593.99 581.86 596.33 C 580.07 597.09 578.27 597.78 576.47 598.51 C 570.47 598.98 564.49 599.28 558.50 598.40 C 554.78 601.34 552.23 605.43 549.56 609.29 C 549.79 612.59 551.15 615.68 552.16 618.81 C 560.70 639.80 565.80 661.93 572.25 683.60 C 576.14 699.60 581.05 715.51 581.93 732.04 C 581.62 740.40 581.22 748.78 580.09 757.08 C 578.43 768.11 573.04 778.06 567.29 787.45 C 564.79 791.43 561.24 794.55 558.00 797.90 C 556.45 799.54 555.13 802.93 557.36 804.56 C 559.90 806.44 563.55 808.24 563.09 812.02 C 563.53 817.58 558.78 820.93 555.32 824.40 C 553.31 828.32 553.01 833.09 554.57 837.22 C 557.18 843.70 562.79 848.10 567.31 853.18 C 572.75 853.89 578.49 853.78 583.52 856.31 C 586.64 858.14 589.60 860.47 591.60 863.53 C 592.38 865.57 592.27 867.82 592.56 869.97 C 601.66 874.03 611.17 877.25 619.90 882.15 C 633.54 889.63 645.36 899.88 656.52 910.62 C 661.49 914.98 665.39 920.34 669.39 925.56 C 671.06 928.03 672.52 930.81 675.27 932.28 C 679.24 934.50 681.78 938.43 685.58 940.88 C 685.00 941.75 684.58 942.70 684.32 943.73 C 688.96 942.53 690.83 947.37 691.84 950.89 C 688.07 953.78 684.47 957.15 679.86 958.66 C 664.99 963.79 649.43 966.49 633.86 968.34 C 627.76 970.50 621.00 968.88 614.93 971.40 C 609.31 971.67 603.65 971.27 598.10 972.40 C 591.34 972.68 584.56 972.53 577.81 973.17 C 571.30 973.96 564.74 973.00 558.25 973.90 C 546.59 975.34 534.81 974.07 523.12 974.87 C 510.93 974.07 498.67 975.24 486.50 974.14 C 485.95 974.29 484.87 974.59 484.33 974.74 C 480.33 974.53 476.31 974.33 472.34 974.82 C 467.04 973.08 461.45 973.68 455.97 973.56 C 447.47 972.97 439.05 971.85 430.56 971.31 C 422.35 970.28 413.95 970.40 405.96 968.06 C 403.26 967.27 400.40 967.82 397.69 967.21 C 394.71 966.16 391.62 965.45 388.67 964.33 C 383.94 963.88 379.31 962.38 375.61 959.33 C 374.42 956.89 374.59 954.23 374.69 951.60 C 373.52 947.74 371.35 943.90 372.55 939.74 C 375.04 937.14 378.33 935.50 380.96 933.06 C 382.98 931.18 385.49 930.01 388.26 929.87 C 391.10 924.14 395.80 919.73 400.13 915.15 C 404.73 910.43 410.64 907.12 414.77 901.94 C 418.42 898.17 422.10 894.31 426.66 891.64 C 438.43 882.02 452.58 875.96 466.69 870.65 C 466.37 867.31 467.36 864.18 469.60 861.70 C 471.64 860.00 473.48 858.02 475.79 856.66 C 480.85 854.68 486.07 853.14 491.44 852.26 C 494.70 848.31 499.22 845.35 501.59 840.72 C 502.46 838.06 504.05 835.68 504.70 832.95 C 504.82 830.98 504.23 829.06 503.95 827.15 C 499.04 824.72 493.93 820.88 493.29 815.02 C 493.64 810.19 498.73 808.32 501.81 805.43 C 503.80 803.78 502.32 801.12 501.64 799.18 C 496.76 789.00 494.11 777.89 492.58 766.75 C 491.48 759.95 490.33 753.00 491.30 746.12 C 491.77 742.32 493.86 738.87 493.65 734.96 C 493.60 727.98 497.85 722.10 499.17 715.42 C 500.59 709.88 503.70 704.80 504.13 699.02 C 504.56 694.75 506.62 690.90 507.65 686.79 C 508.99 681.28 510.55 675.78 510.87 670.09 C 511.38 661.30 511.04 652.34 513.44 643.79 C 511.36 637.74 513.10 631.17 511.59 625.02 C 510.85 621.83 506.03 619.88 503.61 622.36 C 502.87 622.96 502.17 623.60 501.51 624.29 C 498.55 626.75 494.85 627.82 491.41 629.38 C 488.11 630.04 484.69 631.90 481.35 630.38 C 476.99 627.93 474.23 623.63 471.61 619.54 C 465.73 619.23 459.94 621.00 455.24 624.54 C 450.12 623.93 445.47 626.11 440.61 627.28 C 432.95 629.70 425.02 631.25 417.10 632.63 C 413.13 633.58 409.12 634.60 405.02 634.61 C 396.68 634.76 388.27 635.35 380.01 633.95 C 377.90 633.71 375.78 633.63 373.67 633.50 C 364.39 630.70 354.83 628.55 345.99 624.43 C 327.64 616.47 311.22 604.91 294.32 594.40 C 290.68 591.38 286.59 588.95 283.00 585.87 C 279.40 589.67 279.64 595.39 276.38 599.40 C 274.82 601.89 272.82 604.15 269.90 605.02 C 265.52 601.24 260.69 597.23 259.04 591.45 C 257.10 587.58 253.72 584.01 254.22 579.37 C 253.40 579.42 251.76 579.52 250.95 579.57 C 248.03 577.79 244.37 575.88 243.90 572.10 C 244.04 570.63 244.52 569.23 244.92 567.83 C 244.35 567.72 243.21 567.50 242.64 567.38 C 238.63 569.02 234.26 568.44 230.06 568.84 C 222.17 569.48 214.29 568.48 206.52 567.26 C 195.60 564.36 186.91 556.66 178.66 549.32 C 176.48 547.54 174.59 545.22 171.94 544.16 C 170.18 544.36 168.54 545.01 166.92 545.68 C 163.79 544.51 160.27 543.59 158.21 540.72 C 156.10 537.05 155.76 532.60 156.54 528.50 C 162.34 529.22 168.46 530.28 174.10 528.17 C 178.72 526.40 183.03 523.95 187.43 521.72 C 191.25 519.92 194.17 516.76 197.79 514.63 C 202.94 512.93 207.18 509.44 212.02 507.11 C 217.25 504.93 220.96 500.47 225.89 497.80 C 227.95 496.57 230.01 495.35 232.10 494.18 C 234.70 492.70 237.30 491.23 239.89 489.74 C 244.97 487.14 250.32 484.53 253.83 479.86 C 256.54 476.26 259.83 473.15 262.62 469.61 C 264.92 466.57 268.97 466.06 272.02 464.07 C 275.48 462.12 277.36 458.48 279.37 455.23 C 280.03 452.76 280.51 450.24 280.79 447.71 C 282.23 447.84 283.67 447.97 285.12 448.10 C 287.92 450.99 291.42 453.84 292.00 458.08 C 293.15 462.75 290.55 467.12 289.05 471.39 C 291.09 476.44 294.10 482.05 292.32 487.58 C 293.48 492.96 294.66 498.46 293.83 503.99 C 293.58 512.97 289.74 521.24 287.51 529.80 C 286.02 534.23 283.04 537.94 280.44 541.76 C 284.36 543.07 287.55 546.57 287.62 550.84 C 287.30 553.20 286.31 555.42 285.75 557.75 C 286.73 558.12 287.72 558.48 288.71 558.85 C 289.60 559.74 290.49 560.63 291.39 561.52 C 292.96 560.84 295.02 559.78 296.18 561.70 C 299.15 564.34 299.29 568.40 299.09 572.08 C 300.71 572.89 302.30 573.73 303.93 574.55 C 304.49 576.47 303.96 578.37 303.35 580.22 C 302.16 580.75 300.98 581.30 299.81 581.87 C 305.76 586.48 311.82 591.05 318.52 594.55 C 330.39 602.15 342.41 609.86 355.80 614.52 C 364.75 618.48 374.49 620.27 384.08 621.90 C 395.97 622.62 407.92 621.72 419.66 619.78 C 429.84 617.27 439.86 614.21 449.84 611.02 C 454.28 609.06 459.38 608.25 463.18 605.05 C 464.63 603.98 463.31 602.31 463.11 600.97 C 461.96 598.25 462.75 594.94 465.06 593.10 C 468.37 590.28 471.75 587.08 476.15 586.15 C 478.73 585.33 481.62 585.30 483.98 583.88 C 485.89 579.14 486.17 573.89 488.45 569.27 C 489.90 566.30 486.94 563.73 485.92 561.14 C 483.45 550.40 470.90 546.46 467.03 536.49 C 466.77 534.75 466.42 533.05 466.01 531.35 C 460.38 530.20 454.88 528.54 449.26 527.42 C 448.97 527.14 448.40 526.57 448.11 526.29 C 441.96 524.49 435.58 522.62 430.56 518.45 C 425.65 515.07 421.32 510.95 416.43 507.56 C 413.21 505.39 411.22 502.03 408.80 499.11 C 404.73 493.90 402.10 487.82 398.56 482.29 C 398.07 478.92 397.80 475.52 397.93 472.12 C 393.65 471.08 388.56 469.86 386.66 465.36 C 386.04 463.00 385.40 460.46 385.89 458.03 C 387.96 455.10 390.20 451.55 394.05 450.95 C 398.81 448.98 403.98 449.00 409.03 448.59 C 418.16 447.81 426.86 444.65 435.94 443.56 C 442.55 442.77 448.35 439.21 454.66 437.34 C 458.03 436.16 461.66 436.21 465.12 435.42 C 467.81 434.06 470.23 432.17 473.10 431.14 C 478.47 428.25 484.47 427.20 490.20 425.30 C 494.70 423.35 498.93 420.84 503.38 418.78 C 505.59 417.65 508.00 418.68 510.18 419.36 C 513.74 418.28 517.01 415.58 520.92 416.26 C 524.50 416.54 526.52 419.85 529.09 421.92 C 532.69 424.68 534.15 429.11 536.06 433.04 C 538.56 438.72 542.89 443.42 544.88 449.36 C 547.89 455.69 548.31 463.39 545.25 469.79 C 546.73 475.13 545.55 480.61 544.91 485.98 C 543.43 493.03 538.00 498.17 534.45 504.18 C 532.28 508.67 528.32 512.06 526.76 516.88 C 528.11 518.77 529.89 520.25 531.99 521.25 C 529.73 527.60 527.14 534.25 528.29 541.13 C 528.89 544.92 528.76 550.21 533.06 551.82 C 537.12 553.26 541.33 554.49 544.84 557.11 C 547.42 559.26 551.26 558.78 553.96 557.10 C 560.48 553.07 568.24 551.23 575.89 551.91 C 578.37 555.12 580.11 559.04 583.64 561.30 C 585.53 561.04 587.53 560.93 589.20 559.87 C 596.16 556.01 604.01 554.10 610.87 550.02 C 614.79 547.63 619.34 546.07 622.58 542.70 C 636.70 534.78 649.88 524.58 659.58 511.46 C 671.24 497.02 680.51 480.71 687.37 463.47 C 690.41 454.41 693.92 445.51 697.83 436.80 C 698.97 434.11 700.06 431.38 700.78 428.54 C 697.19 429.04 693.48 431.65 689.88 429.92 C 688.06 429.42 687.45 427.39 686.47 426.02 C 686.52 424.47 687.57 423.23 688.03 421.81 C 689.68 417.34 689.39 412.42 690.96 407.93 C 691.97 404.93 693.65 402.23 694.73 399.27 C 692.96 397.66 691.02 396.06 690.19 393.74 C 688.75 390.71 689.37 387.30 689.09 384.08 C 686.46 383.30 683.69 382.96 681.18 381.84 C 673.17 377.13 666.53 370.57 660.05 364.02 C 654.80 357.38 649.23 350.44 647.59 341.89 C 647.73 341.24 648.02 339.94 648.16 339.28 C 646.22 336.41 644.91 333.20 644.32 329.79 C 643.65 324.64 642.29 319.62 641.14 314.58 C 637.80 312.21 632.00 311.72 631.05 307.09 C 631.30 302.88 630.78 298.39 632.52 294.44 C 634.35 295.28 636.21 296.07 638.08 296.83 C 639.32 297.32 640.56 297.79 641.81 298.29 C 649.83 299.29 657.98 299.28 665.88 301.11 C 674.50 303.98 683.63 302.21 692.44 301.54 C 699.59 300.96 706.82 301.96 713.91 300.62 C 726.03 298.46 738.34 297.94 750.59 297.30 Z" />
</g>
</svg>
